<svg width="8" height="14" viewBox="0 0 8 14" fill="none" xmlns="http://www.w3.org/2000/svg">
<path d="M0.535955 11.7089L0.500001 11.7452L0.500001 11.9511C0.500001 12.2156 0.607206 12.4847 0.808355 12.6874C1.22173 13.1042 1.87809 13.1042 2.29147 12.6874L7.19165 7.74733L6.83666 7.39521L7.19165 7.74732C7.6026 7.33302 7.60278 6.67874 7.19221 6.26422C7.19202 6.26403 7.19183 6.26384 7.19165 6.26365L2.30314 1.31334L2.30235 1.31256C1.88898 0.895815 1.23262 0.895815 0.819245 1.31256C0.408247 1.7269 0.408106 2.38129 0.81882 2.7958L0.535955 11.7089ZM0.535955 11.7089C0.54938 11.6495 0.568136 11.5913 0.592086 11.535C0.645909 11.4084 0.724875 11.2939 0.82434 11.1986L4.97898 7L0.819245 2.79623L0.535955 11.7089Z" fill="white" stroke="white"/>
</svg>
